<svg xmlns="http://www.w3.org/2000/svg" class="d d-architecture" viewBox="0 0 750 933" width="750" height="933" role="img" aria-label="How do assistants and people reach one catalog that can live on a laptop or in AWS?">
<title>One contract, two homes</title>
<style>.d { --d-page: #ECF0F3; --d-canvas: #F9FBFC; --d-ink: #13202A; --d-ink2: #3A4A56; --d-line: #B7C4CD; --d-grid: #D5DDE3; --d-shade: #E1E7EB; --d-accent: #137052; --d-accent-soft: #D9EDE3; --d-hot: #B23A0A; --d-hot-soft: #F8E2D5; }
@media (prefers-color-scheme: dark) {
  :root:not([data-theme="light"]) .d, svg.d:root { --d-page: #0E1418; --d-canvas: #151D23; --d-ink: #E3EAEE; --d-ink2: #AFBCC5; --d-line: #3A4A55; --d-grid: #25313A; --d-shade: #1C262D; --d-accent: #46C290; --d-accent-soft: #1C3A2F; --d-hot: #F08A50; --d-hot-soft: #4A2819; color-scheme: dark; }
}
:root[data-theme="dark"] .d { --d-page: #0E1418; --d-canvas: #151D23; --d-ink: #E3EAEE; --d-ink2: #AFBCC5; --d-line: #3A4A55; --d-grid: #25313A; --d-shade: #1C262D; --d-accent: #46C290; --d-accent-soft: #1C3A2F; --d-hot: #F08A50; --d-hot-soft: #4A2819; color-scheme: dark; }

.d { font-family: "IBM Plex Mono", ui-monospace, Menlo, Consolas, "DejaVu Sans Mono", monospace; font-size: 12px; fill: var(--d-ink); }
.d text { dominant-baseline: central; }
.d-bg { fill: var(--d-canvas); }

/* nodes */
.d-node { fill: var(--d-canvas); stroke: var(--d-ink); stroke-width: 1.2; }
.d-node--external { fill: var(--d-shade); stroke: var(--d-ink2); stroke-dasharray: 4 3; }
.d-node--focus { fill: var(--d-accent-soft); stroke: var(--d-accent); stroke-width: 1.6; }
.d-node--alert { fill: var(--d-hot-soft); stroke: var(--d-hot); stroke-width: 1.6; }
.d-node-detail { fill: none; stroke: var(--d-ink); stroke-width: 1; }
.d-node--focus + .d-node-detail { stroke: var(--d-accent); }
.d-node--alert + .d-node-detail { stroke: var(--d-hot); }
.d-node--external + .d-node-detail { stroke: var(--d-ink2); }
.d-node--proposed { stroke-width: 1.4; stroke-dasharray: 2 3; }
.d-node--removed { fill: var(--d-canvas); stroke: var(--d-hot); stroke-width: 1.4; stroke-dasharray: 5 3; }
.d-label { fill: var(--d-ink); text-anchor: middle; }
.d-label--strong { font-weight: 600; }
.d-label--removed { fill: var(--d-ink2); text-decoration: line-through; }
.d-tag--proposed { fill: var(--d-canvas); stroke: var(--d-ink); stroke-width: 1; stroke-dasharray: 2 2; }
.d-tag--removed { fill: var(--d-hot); stroke: var(--d-hot); stroke-width: 1; }
.d-tag-text { font-size: 10px; font-weight: 600; letter-spacing: 0.06em; text-anchor: middle; }
.d-tag-text--proposed { fill: var(--d-ink); }
.d-tag-text--removed { fill: var(--d-canvas); }
.d-legend-text { font-size: 10.5px; fill: var(--d-ink2); }
.d-compare-label { font-size: 10.5px; font-weight: 600; letter-spacing: 0.06em; fill: var(--d-ink2); }
.d-callout { fill: var(--d-ink); }
.d-callout-text { font-size: 10px; font-weight: 600; fill: var(--d-canvas); text-anchor: middle; }
.d-note { font-size: 10.5px; fill: var(--d-ink2); text-anchor: middle; }
.d-note--focus { fill: var(--d-accent); }
.d-note--alert { fill: var(--d-hot); }

/* edges */
.d-edge { fill: none; stroke: var(--d-ink); stroke-width: 1.3; stroke-linejoin: round; }
.d-edge--async { stroke-dasharray: 5 4; }
.d-edge--proposed { stroke-dasharray: 2 3; }
.d-edge--removed { stroke: var(--d-hot); stroke-dasharray: 5 3; }
.d-edge--return { stroke: var(--d-ink2); stroke-width: 1.1; stroke-dasharray: 4 3; }
.d-edge--focus { stroke: var(--d-accent); stroke-width: 2; }
.d-edge--alert { stroke: var(--d-hot); stroke-width: 2; }
.d-edge-label { font-size: 10.5px; fill: var(--d-ink2); text-anchor: middle;
  paint-order: stroke; stroke: var(--d-canvas); stroke-width: 4px; stroke-linejoin: round; }
.d-edge-label--focus { fill: var(--d-accent); font-weight: 600; }
.d-edge-label--alert { fill: var(--d-hot); font-weight: 600; }
.d-arrow { fill: var(--d-ink); }
.d-arrow--focus { fill: var(--d-accent); }
.d-arrow--alert { fill: var(--d-hot); }
.d-arrow--muted { fill: var(--d-ink2); }
.d-arrow--open { fill: none; stroke: var(--d-ink); stroke-width: 1.4; stroke-linejoin: round; }
.d-arrow--open.d-arrow--focus { stroke: var(--d-accent); }
.d-arrow--open.d-arrow--alert { stroke: var(--d-hot); }
.d-arrow--open.d-arrow--muted { stroke: var(--d-ink2); }

/* sequence */
.d-lifeline { fill: none; stroke: var(--d-ink2); stroke-width: 1; stroke-dasharray: 3 4; }
.d-activation { fill: var(--d-shade); stroke: var(--d-ink); stroke-width: 1; }
.d-msg-label { font-size: 11px; fill: var(--d-ink); text-anchor: middle; }
.d-msg-label--start { text-anchor: start; }
.d-msg-label--return { fill: var(--d-ink2); }
.d-msg-label--focus { fill: var(--d-accent); font-weight: 600; }
.d-msg-label--alert { fill: var(--d-hot); font-weight: 600; }
.d-memo { fill: var(--d-shade); stroke: var(--d-ink2); stroke-width: 1; }
.d-memo--alert { fill: var(--d-hot-soft); stroke: var(--d-hot); }
.d-memo-text { font-size: 10.5px; fill: var(--d-ink); text-anchor: middle; }
.d-frame { fill: none; stroke: var(--d-ink2); stroke-width: 1.1; }
.d-frame-tab { fill: var(--d-shade); stroke: var(--d-ink2); stroke-width: 1.1; }
.d-frame-kind { font-size: 10.5px; font-weight: 600; fill: var(--d-ink); }
.d-frame-cond-bg { fill: var(--d-canvas); }
.d-frame-cond { font-size: 10.5px; fill: var(--d-ink2); }
.d-frame-sep { fill: none; stroke: var(--d-ink2); stroke-width: 1; stroke-dasharray: 4 3; }

/* state */
.d-pseudo { fill: var(--d-ink); }
.d-choice-label { font-size: 10.5px; fill: var(--d-ink); text-anchor: middle; }
.d-composite { fill: var(--d-grid); fill-opacity: 0.25; stroke: var(--d-ink2); stroke-width: 1.1; }
.d-composite-label { font-size: 11px; font-weight: 600; fill: var(--d-ink); }

/* groups (boundaries) */
.d-group { fill: var(--d-grid); fill-opacity: 0.35; stroke: var(--d-ink2); stroke-width: 1; stroke-dasharray: 4 3; }
.d-group-label { font-size: 10.5px; fill: var(--d-ink2); letter-spacing: 0.06em; font-weight: 500; }</style>
<defs><marker id="one-contract-two-homes-arrow" viewBox="0 0 10 10" refX="9" refY="5" markerWidth="8" markerHeight="8" markerUnits="userSpaceOnUse" orient="auto-start-reverse"><path class="d-arrow" d="M0 1L10 5L0 9z"/></marker><marker id="one-contract-two-homes-arrow-open" viewBox="0 0 10 10" refX="9" refY="5" markerWidth="8" markerHeight="8" markerUnits="userSpaceOnUse" orient="auto-start-reverse"><path class="d-arrow d-arrow--open" d="M1 1.5L9 5L1 8.5"/></marker><marker id="one-contract-two-homes-arrow-focus" viewBox="0 0 10 10" refX="9" refY="5" markerWidth="8" markerHeight="8" markerUnits="userSpaceOnUse" orient="auto-start-reverse"><path class="d-arrow d-arrow--focus" d="M0 1L10 5L0 9z"/></marker><marker id="one-contract-two-homes-arrow-open-focus" viewBox="0 0 10 10" refX="9" refY="5" markerWidth="8" markerHeight="8" markerUnits="userSpaceOnUse" orient="auto-start-reverse"><path class="d-arrow d-arrow--open d-arrow--focus" d="M1 1.5L9 5L1 8.5"/></marker><marker id="one-contract-two-homes-arrow-alert" viewBox="0 0 10 10" refX="9" refY="5" markerWidth="8" markerHeight="8" markerUnits="userSpaceOnUse" orient="auto-start-reverse"><path class="d-arrow d-arrow--alert" d="M0 1L10 5L0 9z"/></marker><marker id="one-contract-two-homes-arrow-open-alert" viewBox="0 0 10 10" refX="9" refY="5" markerWidth="8" markerHeight="8" markerUnits="userSpaceOnUse" orient="auto-start-reverse"><path class="d-arrow d-arrow--open d-arrow--alert" d="M1 1.5L9 5L1 8.5"/></marker><marker id="one-contract-two-homes-arrow-muted" viewBox="0 0 10 10" refX="9" refY="5" markerWidth="8" markerHeight="8" markerUnits="userSpaceOnUse" orient="auto-start-reverse"><path class="d-arrow d-arrow--muted" d="M0 1L10 5L0 9z"/></marker><marker id="one-contract-two-homes-arrow-open-muted" viewBox="0 0 10 10" refX="9" refY="5" markerWidth="8" markerHeight="8" markerUnits="userSpaceOnUse" orient="auto-start-reverse"><path class="d-arrow d-arrow--open d-arrow--muted" d="M1 1.5L9 5L1 8.5"/></marker></defs>
<rect class="d-bg" width="750" height="933"/>
<rect class="d-group" x="20" y="20" width="549.8" height="561" rx="6"/>
<text class="d-group-label" x="25" y="32.5">YOUR MACHINE</text>
<rect class="d-group" x="233" y="631" width="497" height="252" rx="6"/>
<text class="d-group-label" x="238" y="643.5">YOUR AWS ACCOUNT</text>
<path class="d-edge" d="M392.5 112 L392.5 167" marker-end="url(#one-contract-two-homes-arrow)"/>
<path class="d-edge" d="M207.5 112 L207.5 167" marker-end="url(#one-contract-two-homes-arrow)"/>
<path class="d-edge" d="M375.2 205 L375.2 252 Q375.2 257 370.2 257 L263.2 257 Q258.2 257 258.2 262 L258.2 275" marker-end="url(#one-contract-two-homes-arrow)"/>
<path class="d-edge" d="M207.5 220 L207.5 275" marker-end="url(#one-contract-two-homes-arrow)"/>
<path class="d-edge" d="M409.8 205 L409.8 398" marker-end="url(#one-contract-two-homes-arrow)"/>
<path class="d-edge" d="M207.5 328 L207.5 398" marker-end="url(#one-contract-two-homes-arrow)"/>
<path class="d-edge" d="M258.2 328 L258.2 375 Q258.2 380 263.2 380 L353.2 380 Q358.2 380 358.2 385 L358.2 398" marker-end="url(#one-contract-two-homes-arrow)"/>
<path class="d-edge" d="M358.2 451 L358.2 506" marker-end="url(#one-contract-two-homes-arrow)"/>
<path class="d-edge d-edge--proposed" d="M409.8 451 L409.8 483 Q409.8 488 414.8 488 L434.2 488 Q439.2 488 439.2 493 L439 583 Q439 588 439 593 L439 685" marker-end="url(#one-contract-two-homes-arrow)"/>
<path class="d-edge d-edge--proposed" d="M654 569 L654 601 Q654 606 649 606 L484 606 Q479 606 479.1 611 L479.2 619 Q479.3 624 479.3 629 L479.3 685" marker-end="url(#one-contract-two-homes-arrow)"/>
<path class="d-edge d-edge--proposed" d="M439 738 L439 808" marker-end="url(#one-contract-two-homes-arrow)"/>
<path class="d-edge d-edge--proposed" d="M479.3 738 L479.3 785 Q479.3 790 484.3 790 L626.5 790 Q631.5 790 631.5 795 L631.5 808" marker-end="url(#one-contract-two-homes-arrow)"/>
<rect class="d-node" x="329" y="74" width="127" height="38" rx="19"/>
<text class="d-label" x="392.5" y="93">AI assistant</text>
<rect class="d-node" x="155" y="74" width="105" height="38" rx="19"/>
<text class="d-label" x="207.5" y="93">developer</text>
<rect class="d-node" x="340.5" y="167" width="104" height="38" rx="3"/>
<text class="d-label" x="392.5" y="186">MCP server</text>
<rect class="d-node" x="125" y="167" width="165" height="53" rx="3"/>
<text class="d-label" x="207.5" y="186.5">CLI</text>
<text class="d-note" x="207.5" y="202.5">install, list, update</text>
<rect class="d-node" x="156.8" y="275" width="152" height="53" rx="3"/>
<text class="d-label" x="232.8" y="294.5">installer</text>
<text class="d-note" x="232.8" y="310.5">lock, update policy</text>
<path class="d-node" d="M144.5 404 A63 6 0 0 1 270.5 404 V451 A63 6 0 0 1 144.5 451 Z"/>
<path class="d-node-detail" d="M144.5 404 A63 6 0 0 0 270.5 404"/>
<text class="d-label" x="207.5" y="423.5">skills folder</text>
<text class="d-note" x="207.5" y="439.5">+ lock file</text>
<rect class="d-node d-node--focus" x="306.5" y="398" width="155" height="53" rx="3"/>
<text class="d-label d-label--strong" x="384" y="417.5">catalog interface</text>
<text class="d-note d-note--focus" x="384" y="433.5">one contract</text>
<path class="d-node" d="M295.2 512 A63 6 0 0 1 421.2 512 V559 A63 6 0 0 1 295.2 559 Z"/>
<path class="d-node-detail" d="M295.2 512 A63 6 0 0 0 421.2 512"/>
<text class="d-label" x="358.2" y="531.5">local catalog</text>
<text class="d-note" x="358.2" y="547.5">no server</text>
<rect class="d-node d-node--proposed" x="606" y="531" width="96" height="38" rx="19"/>
<text class="d-label" x="654" y="550">web UI</text>
<rect class="d-node d-node--proposed" x="398.7" y="685" width="121" height="53" rx="3"/>
<text class="d-label" x="459.2" y="704.5">catalog API</text>
<text class="d-note" x="459.2" y="720.5">same core code</text>
<path class="d-node d-node--proposed" d="M365 814 A74 6 0 0 1 513 814 V861 A74 6 0 0 1 365 861 Z"/>
<path class="d-node-detail" d="M365 814 A74 6 0 0 0 513 814"/>
<text class="d-label" x="439" y="833.5">versions + files</text>
<text class="d-note" x="439" y="849.5">DynamoDB + S3</text>
<path class="d-node d-node--proposed" d="M549 814 A82.5 6 0 0 1 714 814 V861 A82.5 6 0 0 1 549 861 Z"/>
<path class="d-node-detail" d="M549 814 A82.5 6 0 0 0 714 814"/>
<text class="d-label" x="631.5" y="833.5">search index</text>
<text class="d-note" x="631.5" y="849.5">rebuilt from versions</text>
<text class="d-edge-label" x="431" y="139.5">tool calls</text>
<text class="d-edge-label" x="240" y="139.5">commands</text>
<text class="d-edge-label" x="316.7" y="246.5">install</text>
<text class="d-edge-label" x="237" y="247.5">install</text>
<text class="d-edge-label" x="483.3" y="301.5">search, read, publish</text>
<text class="d-edge-label" x="156" y="363">writes, checks</text>
<text class="d-edge-label" x="281.2" y="354">fetch</text>
<text class="d-edge-label" x="328.7" y="478.5">file://</text>
<text class="d-edge-label" x="442.3" y="469.5">https://</text>
<text class="d-edge-label" x="677" y="587.5">HTTPS</text>
<text class="d-edge-label" x="394" y="773">read, append</text>
<text class="d-edge-label" x="505.3" y="764">search</text>
<path class="d-edge d-edge--proposed" d="M20 915H48"/>
<text class="d-legend-text" x="56" y="915">planned, not built yet</text>
</svg>
